<?xml version="1.0" standalone="no"?>
<!DOCTYPE svg PUBLIC "-//W3C//DTD SVG 20010904//EN"
 "http://www.w3.org/TR/2001/REC-SVG-20010904/DTD/svg10.dtd">
<svg version="1.0" xmlns="http://www.w3.org/2000/svg"
 width="320.000000pt" height="320.000000pt" viewBox="0 0 320.000000 320.000000"
 preserveAspectRatio="xMidYMid meet">
<metadata>
Created by potrace 1.14, written by Peter Selinger 2001-2017
</metadata>
<g transform="translate(0.000000,320.000000) scale(0.100000,-0.100000)"
fill="#000000" stroke="none">
<path d="M1856 3062 c-3 -3 -6 -56 -6 -119 0 -82 3 -115 13 -117 198 -52 402
-150 514 -247 219 -191 359 -409 424 -661 28 -110 34 -174 33 -333 -1 -190
-29 -319 -104 -480 -42 -91 -109 -202 -125 -208 -6 -3 -46 66 -90 152 -43 86
-83 159 -89 163 -6 4 -7 8 -3 8 5 0 -5 26 -22 58 -16 31 -141 280 -276 552
-136 272 -251 497 -256 498 -5 2 -9 10 -9 17 0 7 -21 55 -47 107 -26 51 -47
95 -48 98 -2 10 -120 245 -126 250 -3 3 -8 13 -12 23 -6 16 -9 17 -37 2 -16
-8 -30 -21 -30 -28 0 -7 -10 -24 -22 -37 -13 -14 -21 -26 -19 -28 5 -5 -52
-126 -61 -130 -5 -2 -8 -9 -8 -15 0 -7 -40 -92 -90 -189 -49 -98 -86 -178 -82
-178 4 0 2 -4 -4 -8 -14 -9 -245 -472 -236 -472 4 0 2 -4 -5 -8 -7 -4 -20 -25
-30 -47 -11 -22 -34 -69 -53 -105 -19 -36 -35 -67 -35 -70 -4 -18 -99 -200
-105 -200 -3 0 -7 -6 -7 -13 0 -19 -64 -147 -74 -147 -5 0 -8 -4 -7 -9 4 -11
-115 -251 -124 -251 -11 0 -60 76 -106 162 -62 117 -112 283 -127 423 -6 49
-5 257 1 295 62 413 300 750 664 942 76 40 212 94 263 104 59 11 57 7 57 130
l0 114 -28 0 c-27 0 -131 -24 -162 -37 -8 -3 -18 -7 -22 -8 -5 -2 -9 -3 -10
-5 -2 -1 -10 -3 -18 -5 -23 -5 -140 -54 -195 -82 -58 -30 -182 -110 -240 -156
-57 -45 -185 -174 -225 -227 -19 -25 -37 -47 -41 -50 -18 -14 -106 -163 -144
-243 -39 -82 -89 -217 -102 -272 -2 -11 -7 -31 -10 -45 -48 -215 -36 -527 28
-738 73 -236 193 -437 372 -620 125 -126 236 -207 392 -282 234 -114 401 -152
665 -151 188 0 314 22 490 85 82 30 266 119 291 142 8 8 21 14 27 14 7 0 12 5
12 10 0 6 7 10 15 10 8 0 15 4 15 9 0 4 18 20 39 34 100 66 282 271 368 413
43 71 125 251 138 304 2 8 13 47 23 85 70 248 59 563 -29 827 -37 111 -96 241
-138 304 -17 25 -31 48 -31 52 0 4 -10 19 -23 34 -13 15 -32 39 -43 54 -168
234 -504 458 -784 524 -30 7 -69 16 -87 20 -17 5 -34 5 -37 2z m-228 -1436
c24 -26 93 -156 84 -156 -4 0 -2 -4 3 -8 9 -6 337 -654 341 -672 6 -30 43 -91
59 -96 11 -4 76 -7 145 -6 68 0 128 -2 132 -4 11 -7 -3 -34 -18 -34 -8 0 -19
-9 -26 -20 -7 -11 -17 -20 -21 -20 -5 0 -23 -11 -41 -25 -18 -14 -38 -25 -44
-25 -7 0 -12 -4 -12 -9 0 -21 -285 -136 -363 -146 -22 -3 -42 -7 -47 -10 -13
-8 -142 -19 -225 -19 -128 0 -206 11 -350 48 -5 2 -17 6 -25 9 -8 3 -45 18
-83 31 -70 26 -200 94 -205 108 -2 4 -10 8 -18 8 -8 0 -14 5 -14 10 0 6 -4 10
-10 10 -5 0 -20 9 -32 19 -13 11 -33 29 -46 39 -13 11 -19 22 -15 25 4 2 70 5
146 5 75 1 141 3 146 7 5 3 105 197 223 433 117 235 216 429 221 430 4 2 7 12
7 23 0 10 5 19 12 19 6 0 8 3 5 7 -10 9 20 40 38 40 8 0 23 -10 33 -21z"/>
<path d="M1594 1461 c4 -5 2 -11 -3 -13 -11 -4 -201 -379 -201 -397 0 -6 -5
-11 -11 -11 -5 0 -7 -4 -4 -10 3 -5 1 -10 -4 -10 -6 0 -10 -3 -9 -7 1 -5 -30
-73 -70 -152 -40 -80 -72 -151 -72 -158 0 -16 -7 -15 424 -14 249 1 332 4 337
13 5 7 5 15 1 18 -9 6 -160 310 -164 330 -2 8 -6 17 -9 20 -3 3 -50 94 -104
203 -54 108 -102 197 -107 197 -5 0 -7 -4 -4 -9z"/>
</g>
</svg>
